<svg xmlns="http://www.w3.org/2000/svg" viewBox="0 0 24 24" fill="#aeb4be">
  <path d="M12 .297C5.372.297 0 5.669 0 12.297c0 5.303 3.438 9.8 8.205 11.385.6.113.82-.258.82-.577 0-.285-.01-1.04-.016-2.04-3.339.726-4.042-1.61-4.042-1.61-.546-1.387-1.333-1.757-1.333-1.757-1.089-.744.083-.729.083-.729 1.205.085 1.84 1.237 1.84 1.237 1.07 1.834 2.807 1.305 3.492.998.107-.776.418-1.305.762-1.604-2.665-.303-5.467-1.333-5.467-5.932 0-1.311.469-2.382 1.236-3.221-.124-.303-.535-1.523.117-3.176 0 0 1.008-.322 3.301 1.23a11.52 11.52 0 0 1 3.006-.404c1.02.005 2.047.138 3.006.404 2.291-1.552 3.297-1.23 3.297-1.23.653 1.653.242 2.873.119 3.176.77.839 1.235 1.91 1.235 3.221 0 4.61-2.807 5.625-5.479 5.921.43.372.814 1.102.814 2.222 0 1.606-.014 2.898-.014 3.293 0 .32.218.694.825.576C20.565 22.092 24 17.594 24 12.297 24 5.669 18.627.297 12 .297z"/>
</svg>
