<svg xmlns="http://www.w3.org/2000/svg" viewBox="0 0 24 24" fill="#aeb4be">
  <path d="M23.193 7.88c0-4.41-2.892-5.7-2.892-5.7C18.84 1.51 16.337.228 11.987.188h-.108c-4.35.04-6.854 1.322-8.314 1.992 0 0-2.892 1.29-2.892 5.7 0 1.01-.019 2.215.013 3.495.108 4.312.79 8.56 4.771 9.605 1.84.482 3.42.583 4.694.514 2.31-.125 3.606-.807 3.606-.807l-.077-1.695s-1.651.52-3.508.458c-1.84-.063-3.782-.197-4.079-2.437a4.6 4.6 0 0 1-.04-.608s1.806.443 4.096.548c1.4.063 2.713-.082 4.055-.24 2.572-.306 4.812-1.885 5.094-3.331.444-2.278.406-5.558.406-5.558zm-3.33 5.735H17.8V8.56c0-1.063-.448-1.604-1.346-1.604-.991 0-1.487.64-1.487 1.906v2.768h-2.05V8.862c0-1.265-.497-1.906-1.488-1.906-.897 0-1.346.541-1.346 1.604v5.055H8.021V8.406c0-1.063-.448-1.603-1.346-1.603-.992 0-1.488.64-1.488 1.905v2.769H3.138V8.624c0-.583.149-1.046.448-1.389.309-.342.714-.517 1.217-.517.582 0 1.082.221 1.5.664l.665.794.665-.794c.418-.443.918-.664 1.5-.664.688 0 1.233.287 1.636.862l.353.507.353-.507c.403-.575.948-.862 1.636-.862.503 0 .908.175 1.217.517.299.343.448.806.448 1.389v4.991z"/>
</svg>
